<svg xmlns="http://www.w3.org/2000/svg" width="115.405" height="35.174" viewBox="0 0 115.405 35.174">
  <g id="Group_1" data-name="Group 1" transform="translate(-1.345 -2)">
    <path id="Path_1" data-name="Path 1" d="M10.175,37l-5.12-6.725V37H1.345V21.77h3.71v6.682l5.077-6.682h4.361l-5.9,7.463L14.709,37Zm17.709-6.248a9.467,9.467,0,0,1-.065,1.085h-8.4a2.593,2.593,0,0,0,.716,1.736,2.283,2.283,0,0,0,1.584.586,1.95,1.95,0,0,0,1.931-1.172H27.6a5.528,5.528,0,0,1-3.081,3.645,6.376,6.376,0,0,1-2.668.542,6.492,6.492,0,0,1-3.167-.759,5.4,5.4,0,0,1-2.17-2.169,6.7,6.7,0,0,1-.781-3.3,6.853,6.853,0,0,1,.759-3.3,5.4,5.4,0,0,1,2.17-2.17,6.539,6.539,0,0,1,3.189-.759,6.474,6.474,0,0,1,3.124.738,5.226,5.226,0,0,1,2.126,2.1A6.316,6.316,0,0,1,27.884,30.752Zm-3.8-.976a1.908,1.908,0,0,0-.651-1.519,2.606,2.606,0,0,0-3.211-.022,2.433,2.433,0,0,0-.781,1.54Zm13.13-5.012A4.342,4.342,0,0,1,40.6,26.153a5.3,5.3,0,0,1,1.28,3.775V37H38.193V30.426a2.656,2.656,0,0,0-.629-1.887,2.465,2.465,0,0,0-3.384,0,2.657,2.657,0,0,0-.629,1.887V37h-3.71V24.894h3.71V26.5a3.828,3.828,0,0,1,1.519-1.258A4.736,4.736,0,0,1,37.217,24.764Zm10.714,9.177h5.25V37H43.787V34.049l5.033-6.1H43.83V24.894h9.242v2.951Zm9.157-10.305a2.315,2.315,0,0,1-1.606-.564,1.913,1.913,0,0,1-.607-1.432,1.869,1.869,0,0,1,.607-1.432,2.263,2.263,0,0,1,1.606-.586,2.157,2.157,0,0,1,1.562.586,1.839,1.839,0,0,1,.629,1.432,1.882,1.882,0,0,1-.629,1.432A2.2,2.2,0,0,1,57.088,23.636Zm1.844,1.258V37h-3.71V24.894Zm14.1,5.858a9.49,9.49,0,0,1-.065,1.085h-8.4a2.593,2.593,0,0,0,.716,1.736,2.283,2.283,0,0,0,1.584.586A1.95,1.95,0,0,0,68.8,32.986H72.75a5.528,5.528,0,0,1-3.081,3.645A6.376,6.376,0,0,1,67,37.174a6.492,6.492,0,0,1-3.167-.759,5.4,5.4,0,0,1-2.17-2.169,6.7,6.7,0,0,1-.781-3.3,6.853,6.853,0,0,1,.759-3.3,5.4,5.4,0,0,1,2.169-2.17A6.539,6.539,0,0,1,67,24.721a6.474,6.474,0,0,1,3.124.738,5.226,5.226,0,0,1,2.126,2.1A6.316,6.316,0,0,1,73.032,30.752Zm-3.8-.976a1.908,1.908,0,0,0-.651-1.519,2.606,2.606,0,0,0-3.211-.022,2.433,2.433,0,0,0-.781,1.54Zm16.3-4.2v2.229H80.883v2.408h3.482v2.164H80.883V37H78.1V25.578Zm5.6,11.553a5.061,5.061,0,0,1-2.408-.569,4.24,4.24,0,0,1-1.676-1.627,4.914,4.914,0,0,1-.6-2.473A4.779,4.779,0,0,1,87.064,30a4.181,4.181,0,0,1,1.692-1.643,5.376,5.376,0,0,1,4.816,0A4.181,4.181,0,0,1,95.265,30a5.164,5.164,0,0,1-.016,4.93,4.185,4.185,0,0,1-1.709,1.627A5.06,5.06,0,0,1,91.132,37.13Zm0-2.408a1.787,1.787,0,0,0,1.35-.586,2.307,2.307,0,0,0,.57-1.676,2.348,2.348,0,0,0-.553-1.676,1.737,1.737,0,0,0-1.334-.586,1.754,1.754,0,0,0-1.351.586,2.357,2.357,0,0,0-.537,1.676,2.442,2.442,0,0,0,.521,1.676A1.736,1.736,0,0,0,91.132,34.722Zm10.36,2.408a5.06,5.06,0,0,1-2.408-.569,4.24,4.24,0,0,1-1.676-1.627,4.914,4.914,0,0,1-.6-2.473A4.779,4.779,0,0,1,97.424,30a4.181,4.181,0,0,1,1.692-1.643,5.376,5.376,0,0,1,4.816,0A4.179,4.179,0,0,1,105.625,30a5.16,5.16,0,0,1-.016,4.93,4.184,4.184,0,0,1-1.709,1.627A5.055,5.055,0,0,1,101.492,37.13Zm0-2.408a1.787,1.787,0,0,0,1.351-.586,2.305,2.305,0,0,0,.569-1.676,2.347,2.347,0,0,0-.553-1.676,1.737,1.737,0,0,0-1.334-.586,1.756,1.756,0,0,0-1.351.586,2.359,2.359,0,0,0-.537,1.676,2.443,2.443,0,0,0,.521,1.676A1.737,1.737,0,0,0,101.492,34.722Zm5.674-2.278a5.5,5.5,0,0,1,.521-2.457,4,4,0,0,1,1.448-1.627,3.762,3.762,0,0,1,2.034-.569,3.522,3.522,0,0,1,1.627.374,2.968,2.968,0,0,1,1.172,1.009V24.959h2.782V37h-2.782V35.7a2.828,2.828,0,0,1-1.123,1.041,3.446,3.446,0,0,1-1.676.39,3.763,3.763,0,0,1-2.034-.569,4.122,4.122,0,0,1-1.448-1.643A5.6,5.6,0,0,1,107.166,32.444Zm6.8.016a2.254,2.254,0,0,0-.586-1.643,1.851,1.851,0,0,0-1.4-.6,1.9,1.9,0,0,0-1.416.6A2.234,2.234,0,0,0,110,32.444a2.352,2.352,0,0,0,.569,1.66,1.9,1.9,0,0,0,1.416.6,1.851,1.851,0,0,0,1.4-.6A2.254,2.254,0,0,0,113.968,32.46Z"/>
    <path id="Path_2" data-name="Path 2" d="M23.373,16.915c0-14.8,27.8-14.12,27.8,0Z" fill="#ff2253" stroke="#ff2253" stroke-width="3.39"/>
    <circle id="Ellipse_1" data-name="Ellipse 1" cx="2.712" cy="2.712" r="2.712" transform="translate(34.221 2)" fill="#ff2253"/>
  </g>
</svg>
